<svg width="750" height="400" viewBox="0 0 750 400" fill="none" xmlns="http://www.w3.org/2000/svg">
<rect width="750" height="400" fill="black"/>
<path d="M-419 -56250C-419 -56251.1 -418.105 -56252 -417 -56252H30900C30901.1 -56252 30902 -56251.1 30902 -56250V17031C30902 17032.1 30901.1 17033 30900 17033H-417.001C-418.105 17033 -419 17032.1 -419 17031V-56250Z" fill="#404040"/>
<path d="M-417 -56251H30900V-56253H-417V-56251ZM30901 -56250V17031H30903V-56250H30901ZM30900 17032H-417.001V17034H30900V17032ZM-418 17031V-56250H-420V17031H-418ZM-417.001 17032C-417.552 17032 -418 17031.6 -418 17031H-420C-420 17032.7 -418.658 17034 -417.001 17034V17032ZM30901 17031C30901 17031.6 30900.6 17032 30900 17032V17034C30901.7 17034 30903 17032.7 30903 17031H30901ZM30900 -56251C30900.6 -56251 30901 -56250.6 30901 -56250H30903C30903 -56251.7 30901.7 -56253 30900 -56253V-56251ZM-417 -56253C-418.657 -56253 -420 -56251.7 -420 -56250H-418C-418 -56250.6 -417.552 -56251 -417 -56251V-56253Z" fill="white" fill-opacity="0.1"/>
<path d="M-182 -488C-182 -489.105 -181.105 -490 -180 -490H30685C30686.1 -490 30687 -489.105 30687 -488V6746C30687 6747.1 30686.1 6748 30685 6748H-180C-181.105 6748 -182 6747.1 -182 6746V-488Z" fill="#666666"/>
<path d="M-180 -489H30685V-491H-180V-489ZM30686 -488V6746H30688V-488H30686ZM30685 6747H-180V6749H30685V6747ZM-181 6746V-488H-183V6746H-181ZM-180 6747C-180.552 6747 -181 6746.55 -181 6746H-183C-183 6747.66 -181.657 6749 -180 6749V6747ZM30686 6746C30686 6746.55 30685.6 6747 30685 6747V6749C30686.7 6749 30688 6747.66 30688 6746H30686ZM30685 -489C30685.6 -489 30686 -488.552 30686 -488H30688C30688 -489.657 30686.7 -491 30685 -491V-489ZM-180 -491C-181.657 -491 -183 -489.657 -183 -488H-181C-181 -488.552 -180.552 -489 -180 -489V-491Z" fill="white" fill-opacity="0.1"/>
<path d="M-50 -175C-50 -176.105 -49.1046 -177 -48 -177H11756C11757.1 -177 11758 -176.105 11758 -175V654C11758 655.105 11757.1 656 11756 656H-47.9998C-49.1043 656 -50 655.105 -50 654V-175Z" fill="#444444"/>
<path d="M-48 -176H11756V-178H-48V-176ZM11757 -175V654H11759V-175H11757ZM11756 655H-47.9998V657H11756V655ZM-49 654V-175H-51V654H-49ZM-47.9998 655C-48.5522 655 -49 654.552 -49 654H-51C-51 655.657 -49.6565 657 -47.9998 657V655ZM11757 654C11757 654.552 11756.6 655 11756 655V657C11757.7 657 11759 655.657 11759 654H11757ZM11756 -176C11756.6 -176 11757 -175.552 11757 -175H11759C11759 -176.657 11757.7 -178 11756 -178V-176ZM-48 -178C-49.6568 -178 -51 -176.657 -51 -175H-49C-49 -175.552 -48.5523 -176 -48 -176V-178Z" fill="white" fill-opacity="0.1"/>
<g clip-path="url(#clip0_54705_25191)">
<path d="M750 0H0V400H750V0Z" fill="#FFFBFF"/>
<path d="M551 97H292C286.477 97 282 101.477 282 107V116C282 121.523 286.477 126 292 126H551C556.523 126 561 121.523 561 116V107C561 101.477 556.523 97 551 97Z" fill="#D9D9D9"/>
<path d="M440 35H292C286.477 35 282 39.4772 282 45V63C282 68.5228 286.477 73 292 73H440C445.523 73 450 68.5228 450 63V45C450 39.4772 445.523 35 440 35Z" fill="#D9D9D9"/>
<path d="M542 198H292C286.477 198 282 202.477 282 208V219C282 224.523 286.477 229 292 229H542C547.523 229 552 224.523 552 219V208C552 202.477 547.523 198 542 198Z" fill="#D9D9D9"/>
<path d="M503 147H292C286.477 147 282 151.477 282 157V168C282 173.523 286.477 178 292 178H503C508.523 178 513 173.523 513 168V157C513 151.477 508.523 147 503 147Z" fill="#D9D9D9"/>
<path d="M655 95H605C599.477 95 595 99.4772 595 105V116C595 121.523 599.477 126 605 126H655C660.523 126 665 121.523 665 116V105C665 99.4772 660.523 95 655 95Z" fill="#FF7FAF"/>
<path d="M169 261H41C35.4772 261 31 265.477 31 271V282C31 287.523 35.4772 292 41 292H169C174.523 292 179 287.523 179 282V271C179 265.477 174.523 261 169 261Z" fill="#D9D9D9"/>
<path d="M292 346H41C35.4772 346 31 350.477 31 356V367C31 372.523 35.4772 377 41 377H292C297.523 377 302 372.523 302 367V356C302 350.477 297.523 346 292 346Z" fill="#D9D9D9"/>
<path d="M357 304H41C35.4772 304 31 308.477 31 314V324C31 329.523 35.4772 334 41 334H357C362.523 334 367 329.523 367 324V314C367 308.477 362.523 304 357 304Z" fill="#D9D9D9"/>
<path d="M268.5 22.5H31.5V253.5H268.5V22.5Z" fill="white" stroke="black"/>
<path d="M149.5 154C172.42 154 191 135.868 191 113.5C191 91.1325 172.42 73 149.5 73C126.58 73 108 91.1325 108 113.5C108 135.868 126.58 154 149.5 154Z" fill="#666666"/>
<path d="M73 220C73 197.502 73 186.252 78.7295 178.366C80.5799 175.82 82.8196 173.58 85.3664 171.729C93.2524 166 104.502 166 127 166H173C195.498 166 206.748 166 214.634 171.729C217.18 173.58 219.42 175.82 221.271 178.366C227 186.252 227 197.502 227 220H73Z" fill="#666666"/>
<g clip-path="url(#clip1_54705_25191)">
<mask id="mask0_54705_25191" style="mask-type:luminance" maskUnits="userSpaceOnUse" x="0" y="0" width="750" height="400">
<path d="M750 0H0V400H750V0Z" fill="white"/>
</mask>
<g mask="url(#mask0_54705_25191)">
<path d="M750 0H0V400H750V0Z" fill="#FFFAFF"/>
<path d="M551 97H292C286.48 97 282 101.48 282 107V116C282 121.52 286.48 126 292 126H551C556.52 126 561 121.52 561 116V107C561 101.48 556.52 97 551 97Z" fill="#D9D9D9"/>
<path d="M440 35H292C286.48 35 282 39.48 282 45V63C282 68.52 286.48 73 292 73H440C445.52 73 450 68.52 450 63V45C450 39.48 445.52 35 440 35Z" fill="#D9D9D9"/>
<path d="M542 198H292C286.48 198 282 202.48 282 208V219C282 224.52 286.48 229 292 229H542C547.52 229 552 224.52 552 219V208C552 202.48 547.52 198 542 198Z" fill="#D9D9D9"/>
<path d="M503 147H292C286.48 147 282 151.48 282 157V168C282 173.52 286.48 178 292 178H503C508.52 178 513 173.52 513 168V157C513 151.48 508.52 147 503 147Z" fill="#D9D9D9"/>
<path d="M655 95H605C599.48 95 595 99.48 595 105V116C595 121.52 599.48 126 605 126H655C660.52 126 665 121.52 665 116V105C665 99.48 660.52 95 655 95Z" fill="#FF7EAF"/>
<path d="M169 261H41C35.48 261 31 265.48 31 271V282C31 287.52 35.48 292 41 292H169C174.52 292 179 287.52 179 282V271C179 265.48 174.52 261 169 261Z" fill="#D9D9D9"/>
<path d="M292 346H41C35.48 346 31 350.48 31 356V367C31 372.52 35.48 377 41 377H292C297.52 377 302 372.52 302 367V356C302 350.48 297.52 346 292 346Z" fill="#D9D9D9"/>
<path d="M357 304H41C35.48 304 31 308.48 31 314V324C31 329.52 35.48 334 41 334H357C362.52 334 367 329.52 367 324V314C367 308.48 362.52 304 357 304Z" fill="#D9D9D9"/>
<path d="M268.5 22.5H31.5V253.5H268.5V22.5Z" fill="white"/>
<path d="M268.5 22.5H31.5V253.5H268.5V22.5Z" stroke="black"/>
<path d="M149.5 154C172.42 154 191 135.87 191 113.5C191 91.13 172.42 73 149.5 73C126.58 73 108 91.13 108 113.5C108 135.87 126.58 154 149.5 154Z" fill="#666666"/>
<path d="M73 220C73 197.5 73 186.26 78.73 178.37C80.58 175.82 82.82 173.58 85.37 171.73C93.26 166 104.5 166 127 166H173C195.5 166 206.74 166 214.63 171.73C217.18 173.58 219.42 175.82 221.27 178.37C227 186.26 227 197.5 227 220H73Z" fill="#666666"/>
</g>
</g>
</g>
<defs>
<clipPath id="clip0_54705_25191">
<rect width="750" height="400" fill="white"/>
</clipPath>
<clipPath id="clip1_54705_25191">
<rect width="750" height="400" fill="white"/>
</clipPath>
</defs>
</svg>
