<svg width="750" height="304" viewBox="0 0 750 304" fill="none" xmlns="http://www.w3.org/2000/svg">
<g clip-path="url(#clip0_57936_20801)">
<mask id="mask0_57936_20801" style="mask-type:luminance" maskUnits="userSpaceOnUse" x="0" y="0" width="750" height="304">
<path d="M740 0H10C4.47715 0 0 4.47715 0 10V294C0 299.523 4.47715 304 10 304H740C745.523 304 750 299.523 750 294V10C750 4.47715 745.523 0 740 0Z" fill="white"/>
</mask>
<g mask="url(#mask0_57936_20801)">
<path d="M740 0H10C4.47715 0 0 4.47715 0 10V294C0 299.523 4.47715 304 10 304H740C745.523 304 750 299.523 750 294V10C750 4.47715 745.523 0 740 0Z" fill="white"/>
<path d="M750 0H0V304H750V0Z" fill="#F2DFFD"/>
<path d="M740 73H10V75H740V73Z" fill="#D9D9D9"/>
<path d="M704 54.972H720.667V30.7538H712.333H704L712.333 27.7266H717H724V57.9993H700.667V27.7266H707.667H712.333L704 30.7538V54.972Z" fill="#49434D"/>
<path d="M694 21H697.333V43.5455C697.333 44.0977 696.886 44.5455 696.333 44.5455H695C694.448 44.5455 694 44.0977 694 43.5455V21Z" fill="#49434D"/>
<path d="M694 24.3637V21H716.333C716.886 21 717.333 21.4478 717.333 22V23.3637C717.333 23.916 716.886 24.3637 716.333 24.3637H694Z" fill="#49434D"/>
<path d="M45.8879 28.7029C45.5679 29.3109 45.1199 30.3989 44.8639 31.0709C43.6479 34.2389 41.7279 38.3989 39.1039 41.7269C36.0319 45.6309 31.8719 49.8549 25.8239 52.9909L23.6479 51.0069C29.5999 48.1589 33.6959 44.3509 36.9919 40.1589C39.6159 36.7669 41.216 33.2149 42.3039 30.0789C42.528 29.4389 42.816 28.3829 42.976 27.7109L45.8879 28.7029ZM28.9919 32.4789C32.1599 34.4949 36.6079 37.6949 39.0399 39.6469C42.24 42.2709 45.4079 45.0549 47.9359 47.8069L45.9199 50.0149C43.2639 46.9429 40.4799 44.4149 37.2799 41.7269C34.9759 39.8069 30.8159 36.6389 27.2959 34.4949L28.9919 32.4789ZM57.7919 29.3109C58.6239 29.3749 59.584 29.4069 60.672 29.4069C62.944 29.4069 73.5359 29.4069 75.8719 29.4069C76.9279 29.4069 77.792 29.3749 78.4959 29.3109V31.8389C77.7279 31.8069 76.9919 31.7749 75.8719 31.7749C73.5359 31.7749 62.336 31.7749 60.672 31.7749C59.584 31.7749 58.6239 31.8069 57.7919 31.8389V29.3109ZM67.5839 39.5829C67.5839 41.9509 67.5839 46.2389 67.5839 47.3589C67.5839 48.9589 68.6719 49.9509 71.6479 49.9509C74.6559 49.9509 77.2799 49.8229 80.0319 49.5029L79.8719 52.1909C77.4079 52.3509 74.3039 52.4789 71.2639 52.4789C66.4319 52.4789 64.896 50.7829 64.896 48.1909C64.896 45.8549 64.896 42.0149 64.896 39.4869C64.896 38.1749 64.896 32.3509 64.896 31.0389H67.5839C67.5839 32.3189 67.5839 38.6869 67.5839 39.5829ZM55.6799 38.3669C56.5439 38.4629 57.824 38.5269 58.688 38.5269C60.992 38.5269 76.3519 38.5269 78.3359 38.5269C79.0079 38.5269 80.2879 38.4629 81.0239 38.3989V41.0229C80.2879 40.9589 79.1039 40.9589 78.3999 40.9589C76.3199 40.9589 60.992 40.9589 58.688 40.9589C57.8559 40.9589 56.5439 40.9909 55.6799 41.0549V38.3669Z" fill="#49434D" fill-opacity="0.6"/>
<path d="M494 102H36C27.1634 102 20 109.163 20 118C20 126.837 27.1634 134 36 134H494C502.837 134 510 126.837 510 118C510 109.163 502.837 102 494 102Z" fill="#D9D9D9"/>
<path d="M404 148H36C27.1634 148 20 155.163 20 164C20 172.837 27.1634 180 36 180H404C412.837 180 420 172.837 420 164C420 155.163 412.837 148 404 148Z" fill="#D9D9D9"/>
<path d="M277 240H36C27.1634 240 20 247.163 20 256C20 264.837 27.1634 272 36 272H277C285.837 272 293 264.837 293 256C293 247.163 285.837 240 277 240Z" fill="#D9D9D9"/>
<path d="M436 194H36C27.1634 194 20 201.163 20 210C20 218.837 27.1634 226 36 226H436C444.837 226 452 218.837 452 210C452 201.163 444.837 194 436 194Z" fill="#D9D9D9"/>
</g>
</g>
<defs>
<clipPath id="clip0_57936_20801">
<rect width="750" height="304" fill="white"/>
</clipPath>
</defs>
</svg>
